:FULLY-SPECIFIED
:FORCE-ALL-JOINTS-BE-3DOF
:DEGREES
306
root 8.88388 15.5822 -23.8606 13.0729 57.684 15.5129
lfemur -18.0357 19.3714 -19.2863
ltibia 50.7497 -0 0
lfoot -21.9501 -24.4941 -0.881931
ltoes 59.5354 -0 0
rfemur -60.0228 -20.3899 36.1328
rtibia 61.69 -0 0
rfoot 10.5512 20.3289 -0.300576
rtoes -19.2653 0 0
lowerback 10.3708 -3.00277 -7.89252
upperback 4.99878 -4.58248 -4.22503
thorax -0.32229 -2.30308 0.469628
lowerneck -5.37704 -10.5938 -2.07514
upperneck -3.69003 -13.9343 10.7219
head 0.7233 -6.89782 3.36801
lclavicle -4.01545e-014 1.59028e-015 0
lhumerus -44.03 -45.7432 101.51
lradius 58.7137 -0 0
lwrist 19.0744 0 0
lhand 15.9885 11.3189 0.0269974
lfingers 7.12502 -0 0
lthumb 40.7849 36.3364 0.0351653
rclavicle -4.01545e-014 1.59028e-015 0
rhumerus -20.1996 57.9362 -58.6708
rradius 74.1445 -0 0
rwrist -2.60273 0 0
rhand 10.8463 -1.68698 -0.514405
rfingers 7.12502 -0 0
rthumb 35.8466 -27.2809 -0.326633
307
root 8.88467 15.5711 -23.8239 12.6784 56.6413 14.986
lfemur -17.8954 19.7937 -19.0084
ltibia 50.7559 -0 0
lfoot -21.933 -23.8819 -0.754087
ltoes 59.1926 -0 0
rfemur -60.0968 -20.927 36.5326
rtibia 61.3788 -0 0
rfoot 10.4132 20.4179 -0.231288
rtoes -19.7973 0 0
lowerback 10.3265 -2.90973 -7.93067
upperback 5.00024 -4.45897 -4.20279
thorax -0.292661 -2.24177 0.502605
lowerneck -5.44638 -10.5093 -1.94462
upperneck -3.80684 -13.8178 10.7856
head 0.686835 -6.84168 3.37443
lclavicle -4.01545e-014 1.59028e-015 0
lhumerus -44.1055 -45.8164 101.505
lradius 58.6694 -0 0
lwrist 19.0502 0 0
lhand 15.7479 11.1568 0.02176
lfingers 7.12502 -0 0
lthumb 40.5581 36.2389 0.0284635
rclavicle -4.01545e-014 1.59028e-015 0
rhumerus -17.2702 58.4332 -55.7882
rradius 74.7494 -0 0
rwrist -3.20395 0 0
rhand 11.9834 -2.09479 -0.406222
rfingers 7.12502 -0 0
rthumb 36.9405 -27.5868 -0.264153
308
root 8.88545 15.5601 -23.7872 12.3281 55.6199 14.4995
lfemur -17.7338 20.1588 -18.7311
ltibia 50.7374 -0 0
lfoot -21.8467 -23.214 -0.601833
ltoes 58.6818 -0 0
rfemur -60.1536 -21.4078 36.853
rtibia 61.0881 -0 0
rfoot 10.2755 20.4269 -0.165218
rtoes -20.2683 0 0
lowerback 10.2611 -2.82446 -7.95134
upperback 4.99498 -4.34275 -4.17443
thorax -0.25903 -2.18398 0.532098
lowerneck -5.50884 -10.4287 -1.82441
upperneck -3.90793 -13.7075 10.8355
head 0.654205 -6.78837 3.37751
lclavicle -4.01545e-014 1.59028e-015 0
lhumerus -44.1838 -45.854 101.515
lradius 58.6239 -0 0
lwrist 19.0349 0 0
lhand 15.5086 11.012 0.0162608
lfingers 7.12502 -0 0
lthumb 40.3324 36.1575 0.0214504
rclavicle -4.01545e-014 1.59028e-015 0
rhumerus -14.6037 58.7407 -53.1977
rradius 75.3248 -0 0
rwrist -3.74396 0 0
rhand 12.9805 -2.48603 -0.297746
rfingers 7.12502 -0 0
rthumb 37.9006 -27.8934 -0.198541
309
root 8.88624 15.549 -23.7506 12.0199 54.625 14.0521
lfemur -17.5494 20.4611 -18.4557
ltibia 50.6926 -0 0
lfoot -21.6858 -22.4886 -0.425125
ltoes 57.9922 -0 0
rfemur -60.1925 -21.8276 37.088
rtibia 60.8211 -0 0
rfoot 10.1394 20.3523 -0.103732
rtoes -20.6755 0 0
lowerback 10.1736 -2.74772 -7.95358
upperback 4.98281 -4.23469 -4.13991
thorax -0.221152 -2.13015 0.557669
lowerneck -5.56361 -10.3527 -1.7156
upperneck -3.99224 -13.6043 10.8709
head 0.625693 -6.73834 3.37715
lclavicle -4.01545e-014 1.59028e-015 0
lhumerus -44.2642 -45.8539 101.541
lradius 58.5773 -0 0
lwrist 19.0293 0 0
lhand 15.2717 10.8862 0.0106725
lfingers 7.12502 -0 0
lthumb 40.1089 36.0933 0.0142667
rclavicle -4.01545e-014 1.59028e-015 0
rhumerus -12.2775 58.8768 -50.979
rradius 75.8679 -0 0
rwrist -4.21826 0 0
rhand 13.8259 -2.85863 -0.191883
rfingers 7.12502 -0 0
rthumb 38.7157 -28.1996 -0.13143
310
root 8.88702 15.538 -23.7139 11.7518 53.6618 13.6426
lfemur -17.3409 20.6952 -18.1838
ltibia 50.6199 -0 0
lfoot -21.4448 -21.7037 -0.224276
ltoes 57.1133 -0 0
rfemur -60.2125 -22.1815 37.2319
rtibia 60.5807 -0 0
rfoot 10.0066 20.1903 -0.0482026
rtoes -21.0161 0 0
lowerback 10.0632 -2.68022 -7.93644
upperback 4.9635 -4.13565 -4.09919
thorax -0.178785 -2.08071 0.578878
lowerneck -5.60985 -10.282 -1.6193
upperneck -4.05867 -13.5093 10.8913
head 0.601584 -6.69209 3.37325
lclavicle -4.01545e-014 1.59028e-015 0
lhumerus -44.3459 -45.8135 101.582
lradius 58.5294 -0 0
lwrist 19.0342 0 0
lhand 15.0384 10.7809 0.0051845
lfingers 7.12502 -0 0
lthumb 39.8886 36.0477 0.00706334
rclavicle -4.01545e-014 1.59028e-015 0
rhumerus -10.3579 58.8604 -49.2013
rradius 76.376 -0 0
rwrist -4.62239 0 0
rhand 14.5078 -3.21064 -0.0916259
rfingers 7.12502 -0 0
rthumb 39.3744 -28.5045 -0.0646062
311
root 8.88781 15.5269 -23.6772 11.5223 52.7357 13.2701
lfemur -17.107 20.8554 -17.9169
ltibia 50.5176 0 0
lfoot -21.1181 -20.8572 0
ltoes 56.0343 0 0
rfemur -60.2133 -22.4646 37.2791
rtibia 60.37 0 0
rfoot 9.8784 19.9374 0
rtoes -21.2874 0 0
lowerback 9.92883 -2.62269 -7.89893
upperback 4.93684 -4.04647 -4.05221
thorax -0.131686 -2.03608 0.595285
lowerneck -5.64675 -10.2174 -1.53661
upperneck -4.10615 -13.4234 10.8959
head 0.582162 -6.65007 3.36572
lclavicle -4.01545e-014 1.59028e-015 0
lhumerus -44.4282 -45.7307 101.639
lradius 58.48 0 0
lwrist 19.0503 0 0
lhand 14.8098 10.6978 0
lfingers 7.12502 0 0
lthumb 39.6726 36.0218 0
rclavicle -4.01545e-014 1.59028e-015 0
rhumerus -8.8981 58.7091 -47.9201
rradius 76.8463 0 0
rwrist -4.95187 0 0
rhand 15.0146 -3.5401 0
rfingers 7.12502 0 0
rthumb 39.8654 -748.807 0
312
root 8.86183 15.5463 -23.5609 11.325 51.8234 12.9184
lfemur -16.8285 20.9467 -17.6412
ltibia 50.3647 -0 0
lfoot -20.6809 -19.8927 0.26008
ltoes 54.6885 -0 0
rfemur -60.1835 -22.691 37.2082
rtibia 60.1803 -0 0
rfoot 9.75057 19.555 0.0468354
rtoes -21.4866 0 0
lowerback 9.7584 -2.57459 -7.83869
upperback 4.89901 -3.96555 -3.99483
thorax -0.0771134 -1.9954 0.609281
lowerneck -5.67659 -10.158 -1.46543
upperneck -4.13502 -13.3456 10.8836
head 0.567222 -6.61171 3.35382
lclavicle -4.48259e-014 7.95139e-015 0
lhumerus -44.5254 -45.6031 101.731
lradius 58.4287 -0 0
lwrist 19.0788 0 0
lhand 14.5862 10.6383 -0.00630831
lfingers 7.12502 -0 0
lthumb 39.4614 36.0192 -0.00784223
rclavicle -4.48259e-014 7.95139e-015 0
rhumerus -7.86626 58.4111 -47.1017
rradius 77.3008 -0 0
rwrist -5.21053 0 0
rhand 15.36 -3.86083 0.0851696
rfingers 7.12502 -0 0
rthumb 40.2018 -29.1208 0.0641494
313
root 8.83586 15.5657 -23.4447 11.1533 50.8985 12.5711
lfemur -16.4911 20.9795 -17.3436
ltibia 50.1449 -0 0
lfoot -20.1163 -18.7627 0.562716
ltoes 53.0312 -0 0
rfemur -60.1124 -22.8789 37.0068
rtibia 60.0004 -0 0
rfoot 9.61731 19.0141 0.0985526
rtoes -21.615 0 0
lowerback 9.54264 -2.53443 -7.75491
upperback 4.847 -3.89039 -3.92352
thorax -0.0130005 -1.95739 0.623494
lowerneck -5.7024 -10.1021 -1.40255
upperneck -4.14701 -13.2738 10.8541
head 0.556224 -6.57592 3.33703
lclavicle -4.48259e-014 7.95139e-015 0
lhumerus -44.6502 -45.4314 101.875
lradius 58.3752 -0 0
lwrist 19.1197 0 0
lhand 14.3662 10.6018 -0.0150461
lfingers 7.12502 -0 0
lthumb 39.2539 36.0414 -0.0172909
rclavicle -4.48259e-014 7.95139e-015 0
rhumerus -7.19043 57.9567 -46.6693
rradius 77.7619 -0 0
rwrist -5.40725 0 0
rhand 15.5705 -4.18774 0.167481
rfingers 7.12502 -0 0
rthumb 40.4091 -29.459 0.130324
314
root 8.80988 15.5851 -23.3284 11.0053 49.9614 12.2276
lfemur -16.1009 20.957 -17.0264
ltibia 49.8639 -0 0
lfoot -19.4309 -17.478 0.898001
ltoes 51.0851 -0 0
rfemur -60.001 -23.0294 36.6831
rtibia 59.8294 -0 0
rfoot 9.47787 18.3256 0.154222
rtoes -21.6755 0 0
lowerback 9.28484 -2.50141 -7.64891
upperback 4.78178 -3.82054 -3.8392
thorax 0.0598846 -1.92184 0.637832
lowerneck -5.7245 -10.0494 -1.34738
upperneck -4.14307 -13.2072 10.8084
head 0.548955 -6.54241 3.3156
lclavicle -4.48259e-014 7.95139e-015 0
lhumerus -44.7995 -45.2179 102.067
lradius 58.3196 -0 0
lwrist 19.1721 0 0
lhand 14.1488 10.5865 -0.0258328
lfingers 7.12502 -0 0
lthumb 39.0491 36.0866 -0.0280572
rclavicle -4.48259e-014 7.95139e-015 0
rhumerus -6.84548 57.3612 -46.5962
rradius 78.2277 -0 0
rwrist -5.54515 0 0
rhand 15.6536 -4.52052 0.246078
rfingers 7.12502 -0 0
rthumb 40.4943 -29.8203 0.197511
315
root 8.78391 15.6046 -23.2122 10.8794 49.0127 11.8869
lfemur -15.6642 20.8825 -16.6924
ltibia 49.5273 -0 0
lfoot -18.6312 -16.0498 1.25563
ltoes 48.8727 -0 0
rfemur -59.8505 -23.1434 36.2456
rtibia 59.6664 -0 0
rfoot 9.33148 17.5002 0.212904
rtoes -21.671 0 0
lowerback 8.98827 -2.47471 -7.52202
upperback 4.70433 -3.7555 -3.74277
thorax 0.140774 -1.88858 0.652204
lowerneck -5.74321 -9.99937 -1.29936
upperneck -4.12416 -13.1453 10.7473
head 0.545201 -6.51089 3.28977
lclavicle -4.48259e-014 7.95139e-015 0
lhumerus -44.9701 -44.965 102.3
lradius 58.2623 -0 0
lwrist 19.2352 0 0
lhand 13.9331 10.5907 -0.0383047
lfingers 7.12502 -0 0
lthumb 38.8461 36.153 -0.039867
rclavicle -4.48259e-014 7.95139e-015 0
rhumerus -6.79868 56.6364 -46.848
rradius 78.6961 -0 0
rwrist -5.62735 0 0
rhand 15.6167 -4.85879 0.320151
rfingers 7.12502 -0 0
rthumb 40.4646 -30.2031 0.264633
